<svg width="48" height="48" viewBox="0 0 48 48" fill="none" xmlns="http://www.w3.org/2000/svg">
<rect width="48" height="48" rx="7.24528" fill="url(#paint0_linear_2591_557)"/>
<path fill-rule="evenodd" clip-rule="evenodd" d="M11.5472 36.4528V48H12.9057V36.4528H23.3208V48H24.6792V36.4528H35.0943V48H36.4528V36.4528H48V35.0943H36.4528V24.6792H48V23.3208H36.4528V12.9057H48V11.5472H36.4528V0H35.0943V11.5472H24.6792V0H23.3208V11.5472H12.9057V0H11.5472V11.5472H0V12.9057H11.5472V23.3208H0V24.6792H11.5472V35.0943H0V36.4528H11.5472ZM35.0943 12.9057H24.6792V23.3208H35.0943V12.9057ZM35.0943 24.6792H24.6792V35.0943H35.0943V24.6792ZM23.3208 24.6792V35.0943H12.9057V24.6792H23.3208ZM23.3208 12.9057V23.3208H12.9057V12.9057H23.3208Z" fill="url(#paint1_radial_2591_557)"/>
<g filter="url(#filter0_i_2591_557)">
<path fill-rule="evenodd" clip-rule="evenodd" d="M34.4155 31.4615C34.0658 31.1118 33.5027 31.1112 33.117 31.4207C31.4884 32.7276 29.4204 33.5094 27.1698 33.5094C21.9179 33.5094 17.6604 29.2519 17.6604 24C17.6604 18.7481 21.9179 14.4906 27.1698 14.4906C29.5197 14.4906 31.6706 15.3429 33.33 16.7554C33.7152 17.0832 34.2941 17.0916 34.6518 16.7339L40.4105 10.9752C40.7622 10.6235 40.7658 10.0522 40.401 9.71408C36.9276 6.49567 32.2785 4.52831 27.1698 4.52831C16.4159 4.52831 7.69812 13.2461 7.69812 24C7.69812 34.7539 16.4159 43.4717 27.1698 43.4717C32.1636 43.4717 36.7184 41.5918 40.1649 38.5011C40.5394 38.1653 40.5403 37.5863 40.1846 37.2307L34.4155 31.4615Z" fill="white" fill-opacity="0.6"/>
</g>
<path d="M7.69812 18.1132C7.69812 17.613 8.1036 17.2076 8.60378 17.2076H16.7547C17.2549 17.2076 17.6604 17.613 17.6604 18.1132V38.5428C17.6604 38.7979 17.5527 39.0413 17.3639 39.2129L13.2885 42.9179C12.943 43.2319 12.4155 43.2319 12.07 42.9179L7.99457 39.2129C7.80576 39.0413 7.69812 38.7979 7.69812 38.5428V18.1132Z" fill="url(#paint2_linear_2591_557)"/>
<path d="M7.69812 9.50944C7.69812 6.75844 9.92825 4.52831 12.6793 4.52831V4.52831C15.4303 4.52831 17.6604 6.75843 17.6604 9.50944V13.5849C17.6604 14.0851 17.2549 14.4906 16.7547 14.4906H8.60378C8.1036 14.4906 7.69812 14.0851 7.69812 13.5849V9.50944Z" fill="white"/>
<defs>
<filter id="filter0_i_2591_557" x="7.69812" y="4.52831" width="32.9763" height="40.7547" filterUnits="userSpaceOnUse" color-interpolation-filters="sRGB">
<feFlood flood-opacity="0" result="BackgroundImageFix"/>
<feBlend mode="normal" in="SourceGraphic" in2="BackgroundImageFix" result="shape"/>
<feColorMatrix in="SourceAlpha" type="matrix" values="0 0 0 0 0 0 0 0 0 0 0 0 0 0 0 0 0 0 127 0" result="hardAlpha"/>
<feOffset dy="1.81132"/>
<feGaussianBlur stdDeviation="0.90566"/>
<feComposite in2="hardAlpha" operator="arithmetic" k2="-1" k3="1"/>
<feColorMatrix type="matrix" values="0 0 0 0 1 0 0 0 0 1 0 0 0 0 1 0 0 0 0.6 0"/>
<feBlend mode="normal" in2="shape" result="effect1_innerShadow_2591_557"/>
</filter>
<linearGradient id="paint0_linear_2591_557" x1="24" y1="0" x2="24" y2="48" gradientUnits="userSpaceOnUse">
<stop stop-color="#F86638"/>
<stop offset="1" stop-color="#F89438"/>
</linearGradient>
<radialGradient id="paint1_radial_2591_557" cx="0" cy="0" r="1" gradientUnits="userSpaceOnUse" gradientTransform="translate(24 24) rotate(180) scale(24)">
<stop stop-color="white"/>
<stop offset="1" stop-color="white" stop-opacity="0"/>
</radialGradient>
<linearGradient id="paint2_linear_2591_557" x1="7.69812" y1="30.7925" x2="17.6604" y2="30.7925" gradientUnits="userSpaceOnUse">
<stop stop-color="white"/>
<stop offset="1" stop-color="white"/>
</linearGradient>
</defs>
</svg>
